<mxfile host="65bd71144e">
    <diagram id="X5u0X-6F0oMw5vRTHbV2" name="第 1 页">
        <mxGraphModel dx="1186" dy="437" grid="0" gridSize="10" guides="1" tooltips="1" connect="1" arrows="1" fold="1" page="0" pageScale="1" pageWidth="827" pageHeight="1169" math="0" shadow="0">
            <root>
                <mxCell id="0"/>
                <mxCell id="1" parent="0"/>
                <mxCell id="2" value="时钟分频" style="rounded=0;whiteSpace=wrap;html=1;" parent="1" vertex="1">
                    <mxGeometry x="113" y="193" width="120" height="60" as="geometry"/>
                </mxCell>
                <mxCell id="3" value="" style="endArrow=open;html=1;entryX=0;entryY=0.5;entryDx=0;entryDy=0;endFill=0;strokeWidth=2;" parent="1" target="2" edge="1">
                    <mxGeometry width="50" height="50" relative="1" as="geometry">
                        <mxPoint x="80" y="223" as="sourcePoint"/>
                        <mxPoint x="130" y="197" as="targetPoint"/>
                    </mxGeometry>
                </mxCell>
                <mxCell id="4" value="50M Clk" style="text;html=1;strokeColor=none;fillColor=none;align=center;verticalAlign=middle;whiteSpace=wrap;rounded=0;" parent="1" vertex="1">
                    <mxGeometry x="20" y="208" width="60" height="30" as="geometry"/>
                </mxCell>
                <mxCell id="5" value="" style="endArrow=open;html=1;exitX=1;exitY=0.5;exitDx=0;exitDy=0;entryX=0;entryY=0.5;entryDx=0;entryDy=0;endFill=0;" parent="1" source="2" target="6" edge="1">
                    <mxGeometry width="50" height="50" relative="1" as="geometry">
                        <mxPoint x="280" y="236" as="sourcePoint"/>
                        <mxPoint x="298" y="223" as="targetPoint"/>
                    </mxGeometry>
                </mxCell>
                <mxCell id="6" value="计数器" style="rounded=0;whiteSpace=wrap;html=1;" parent="1" vertex="1">
                    <mxGeometry x="332" y="193" width="120" height="60" as="geometry"/>
                </mxCell>
                <mxCell id="7" value="Clk_1k" style="text;html=1;strokeColor=none;fillColor=none;align=center;verticalAlign=middle;whiteSpace=wrap;rounded=0;" parent="1" vertex="1">
                    <mxGeometry x="250" y="193" width="60" height="30" as="geometry"/>
                </mxCell>
                <mxCell id="8" value="3-8_decoder" style="rounded=0;whiteSpace=wrap;html=1;" parent="1" vertex="1">
                    <mxGeometry x="569" y="155" width="76" height="136" as="geometry"/>
                </mxCell>
                <mxCell id="9" value="" style="endArrow=none;html=1;exitX=1;exitY=0.5;exitDx=0;exitDy=0;endFill=0;entryX=0;entryY=0.5;entryDx=0;entryDy=0;" parent="1" target="8" edge="1">
                    <mxGeometry width="50" height="50" relative="1" as="geometry">
                        <mxPoint x="452" y="222.71" as="sourcePoint"/>
                        <mxPoint x="535" y="222.71" as="targetPoint"/>
                    </mxGeometry>
                </mxCell>
                <mxCell id="11" value="[7:0]Sel" style="text;html=1;strokeColor=none;fillColor=none;align=center;verticalAlign=middle;whiteSpace=wrap;rounded=0;" parent="1" vertex="1">
                    <mxGeometry x="660" y="140" width="60" height="30" as="geometry"/>
                </mxCell>
                <mxCell id="12" value="" style="endArrow=none;html=1;exitX=1;exitY=0.5;exitDx=0;exitDy=0;endFill=0;endSize=6;startSize=6;" parent="1" edge="1">
                    <mxGeometry width="50" height="50" relative="1" as="geometry">
                        <mxPoint x="452" y="207.71" as="sourcePoint"/>
                        <mxPoint x="569" y="208" as="targetPoint"/>
                    </mxGeometry>
                </mxCell>
                <mxCell id="13" value="" style="endArrow=none;html=1;exitX=1;exitY=0.5;exitDx=0;exitDy=0;endFill=0;entryX=0.001;entryY=0.606;entryDx=0;entryDy=0;entryPerimeter=0;" parent="1" target="8" edge="1">
                    <mxGeometry width="50" height="50" relative="1" as="geometry">
                        <mxPoint x="452" y="237.71" as="sourcePoint"/>
                        <mxPoint x="535" y="237.71" as="targetPoint"/>
                    </mxGeometry>
                </mxCell>
                <mxCell id="14" value="" style="endArrow=none;html=1;exitX=1;exitY=0.5;exitDx=0;exitDy=0;endFill=0;" parent="1" edge="1">
                    <mxGeometry width="50" height="50" relative="1" as="geometry">
                        <mxPoint x="645" y="215" as="sourcePoint"/>
                        <mxPoint x="726" y="215" as="targetPoint"/>
                    </mxGeometry>
                </mxCell>
                <mxCell id="15" value="" style="endArrow=none;html=1;exitX=1;exitY=0.5;exitDx=0;exitDy=0;endFill=0;" parent="1" edge="1">
                    <mxGeometry width="50" height="50" relative="1" as="geometry">
                        <mxPoint x="645" y="245" as="sourcePoint"/>
                        <mxPoint x="726" y="245" as="targetPoint"/>
                    </mxGeometry>
                </mxCell>
                <mxCell id="16" value="" style="endArrow=none;html=1;exitX=1;exitY=0.5;exitDx=0;exitDy=0;endFill=0;" parent="1" edge="1">
                    <mxGeometry width="50" height="50" relative="1" as="geometry">
                        <mxPoint x="645" y="200" as="sourcePoint"/>
                        <mxPoint x="726" y="200" as="targetPoint"/>
                    </mxGeometry>
                </mxCell>
                <mxCell id="17" value="" style="endArrow=none;html=1;exitX=1;exitY=0.5;exitDx=0;exitDy=0;endFill=0;" parent="1" edge="1">
                    <mxGeometry width="50" height="50" relative="1" as="geometry">
                        <mxPoint x="645" y="230" as="sourcePoint"/>
                        <mxPoint x="726" y="230" as="targetPoint"/>
                    </mxGeometry>
                </mxCell>
                <mxCell id="18" value="" style="endArrow=none;html=1;exitX=1;exitY=0.5;exitDx=0;exitDy=0;endFill=0;" parent="1" edge="1">
                    <mxGeometry width="50" height="50" relative="1" as="geometry">
                        <mxPoint x="645" y="275" as="sourcePoint"/>
                        <mxPoint x="726" y="275" as="targetPoint"/>
                    </mxGeometry>
                </mxCell>
                <mxCell id="19" value="" style="endArrow=none;html=1;exitX=1;exitY=0.5;exitDx=0;exitDy=0;endFill=0;" parent="1" edge="1">
                    <mxGeometry width="50" height="50" relative="1" as="geometry">
                        <mxPoint x="645" y="260" as="sourcePoint"/>
                        <mxPoint x="726" y="260" as="targetPoint"/>
                    </mxGeometry>
                </mxCell>
                <mxCell id="20" value="" style="endArrow=none;html=1;exitX=1;exitY=0.5;exitDx=0;exitDy=0;endFill=0;" parent="1" edge="1">
                    <mxGeometry width="50" height="50" relative="1" as="geometry">
                        <mxPoint x="645" y="185" as="sourcePoint"/>
                        <mxPoint x="726" y="185" as="targetPoint"/>
                    </mxGeometry>
                </mxCell>
                <mxCell id="21" value="" style="endArrow=none;html=1;exitX=1;exitY=0.5;exitDx=0;exitDy=0;endFill=0;" parent="1" edge="1">
                    <mxGeometry width="50" height="50" relative="1" as="geometry">
                        <mxPoint x="645" y="170" as="sourcePoint"/>
                        <mxPoint x="726" y="170" as="targetPoint"/>
                    </mxGeometry>
                </mxCell>
                <mxCell id="23" value="[31:0]Disp_data" style="text;html=1;strokeColor=none;fillColor=none;align=center;verticalAlign=middle;whiteSpace=wrap;rounded=0;" parent="1" vertex="1">
                    <mxGeometry x="191" y="389.37" width="60" height="30" as="geometry"/>
                </mxCell>
                <mxCell id="27" value="" style="verticalLabelPosition=bottom;shadow=0;dashed=0;align=center;html=1;verticalAlign=top;strokeWidth=1;shape=trapezoid;perimeter=none;rotation=90;" parent="1" vertex="1">
                    <mxGeometry x="409" y="367.37" width="120" height="67" as="geometry"/>
                </mxCell>
                <mxCell id="29" value="LUT" style="rounded=0;whiteSpace=wrap;html=1;" parent="1" vertex="1">
                    <mxGeometry x="569" y="340.87" width="76" height="135" as="geometry"/>
                </mxCell>
                <mxCell id="31" value="[7:0]Seg" style="text;html=1;strokeColor=none;fillColor=none;align=center;verticalAlign=middle;whiteSpace=wrap;rounded=0;" parent="1" vertex="1">
                    <mxGeometry x="660" y="320" width="60" height="30" as="geometry"/>
                </mxCell>
                <mxCell id="34" value="" style="endArrow=none;html=1;exitX=1;exitY=0.5;exitDx=0;exitDy=0;endFill=0;" parent="1" edge="1">
                    <mxGeometry width="50" height="50" relative="1" as="geometry">
                        <mxPoint x="645" y="400.87" as="sourcePoint"/>
                        <mxPoint x="726" y="400.87" as="targetPoint"/>
                    </mxGeometry>
                </mxCell>
                <mxCell id="35" value="" style="endArrow=none;html=1;exitX=1;exitY=0.5;exitDx=0;exitDy=0;endFill=0;" parent="1" edge="1">
                    <mxGeometry width="50" height="50" relative="1" as="geometry">
                        <mxPoint x="645" y="430.87" as="sourcePoint"/>
                        <mxPoint x="726" y="430.87" as="targetPoint"/>
                    </mxGeometry>
                </mxCell>
                <mxCell id="36" value="" style="endArrow=none;html=1;exitX=1;exitY=0.5;exitDx=0;exitDy=0;endFill=0;" parent="1" edge="1">
                    <mxGeometry width="50" height="50" relative="1" as="geometry">
                        <mxPoint x="645" y="385.87" as="sourcePoint"/>
                        <mxPoint x="726" y="385.87" as="targetPoint"/>
                    </mxGeometry>
                </mxCell>
                <mxCell id="37" value="" style="endArrow=none;html=1;exitX=1;exitY=0.5;exitDx=0;exitDy=0;endFill=0;" parent="1" edge="1">
                    <mxGeometry width="50" height="50" relative="1" as="geometry">
                        <mxPoint x="645" y="415.87" as="sourcePoint"/>
                        <mxPoint x="726" y="415.87" as="targetPoint"/>
                    </mxGeometry>
                </mxCell>
                <mxCell id="38" value="" style="endArrow=none;html=1;exitX=1;exitY=0.5;exitDx=0;exitDy=0;endFill=0;" parent="1" edge="1">
                    <mxGeometry width="50" height="50" relative="1" as="geometry">
                        <mxPoint x="645" y="460.87" as="sourcePoint"/>
                        <mxPoint x="726" y="460.87" as="targetPoint"/>
                    </mxGeometry>
                </mxCell>
                <mxCell id="39" value="" style="endArrow=none;html=1;exitX=1;exitY=0.5;exitDx=0;exitDy=0;endFill=0;" parent="1" edge="1">
                    <mxGeometry width="50" height="50" relative="1" as="geometry">
                        <mxPoint x="645" y="445.87" as="sourcePoint"/>
                        <mxPoint x="726" y="445.87" as="targetPoint"/>
                    </mxGeometry>
                </mxCell>
                <mxCell id="40" value="" style="endArrow=none;html=1;exitX=1;exitY=0.5;exitDx=0;exitDy=0;endFill=0;" parent="1" edge="1">
                    <mxGeometry width="50" height="50" relative="1" as="geometry">
                        <mxPoint x="645" y="370.87" as="sourcePoint"/>
                        <mxPoint x="726" y="370.87" as="targetPoint"/>
                    </mxGeometry>
                </mxCell>
                <mxCell id="41" value="" style="endArrow=none;html=1;exitX=1;exitY=0.5;exitDx=0;exitDy=0;endFill=0;" parent="1" edge="1">
                    <mxGeometry width="50" height="50" relative="1" as="geometry">
                        <mxPoint x="645" y="355.87" as="sourcePoint"/>
                        <mxPoint x="726" y="355.87" as="targetPoint"/>
                    </mxGeometry>
                </mxCell>
                <mxCell id="44" value="" style="endArrow=none;html=1;startArrow=none;" parent="1" source="45" edge="1">
                    <mxGeometry width="50" height="50" relative="1" as="geometry">
                        <mxPoint x="465" y="423" as="sourcePoint"/>
                        <mxPoint x="465" y="207" as="targetPoint"/>
                    </mxGeometry>
                </mxCell>
                <mxCell id="45" value="" style="shape=waypoint;sketch=0;fillStyle=solid;size=6;pointerEvents=1;points=[];fillColor=none;resizable=0;rotatable=0;perimeter=centerPerimeter;snapToPoint=1;" parent="1" vertex="1">
                    <mxGeometry x="445" y="188" width="40" height="40" as="geometry"/>
                </mxCell>
                <mxCell id="47" value="" style="shape=waypoint;sketch=0;fillStyle=solid;size=6;pointerEvents=1;points=[];fillColor=none;resizable=0;rotatable=0;perimeter=centerPerimeter;snapToPoint=1;" parent="1" vertex="1">
                    <mxGeometry x="458" y="203" width="40" height="40" as="geometry"/>
                </mxCell>
                <mxCell id="48" value="" style="shape=waypoint;sketch=0;fillStyle=solid;size=6;pointerEvents=1;points=[];fillColor=none;resizable=0;rotatable=0;perimeter=centerPerimeter;snapToPoint=1;" parent="1" vertex="1">
                    <mxGeometry x="472" y="218" width="40" height="40" as="geometry"/>
                </mxCell>
                <mxCell id="50" value="" style="endArrow=none;html=1;startSize=0;endSize=6;sourcePerimeterSpacing=0;" parent="1" target="47" edge="1">
                    <mxGeometry width="50" height="50" relative="1" as="geometry">
                        <mxPoint x="478" y="355" as="sourcePoint"/>
                        <mxPoint x="478" y="276" as="targetPoint"/>
                    </mxGeometry>
                </mxCell>
                <mxCell id="51" value="" style="endArrow=none;html=1;startSize=0;endSize=6;sourcePerimeterSpacing=0;" parent="1" target="45" edge="1">
                    <mxGeometry width="50" height="50" relative="1" as="geometry">
                        <mxPoint x="465" y="352" as="sourcePoint"/>
                        <mxPoint x="465" y="274" as="targetPoint"/>
                    </mxGeometry>
                </mxCell>
                <mxCell id="52" value="" style="endArrow=none;html=1;startSize=0;endSize=6;sourcePerimeterSpacing=0;" parent="1" edge="1">
                    <mxGeometry width="50" height="50" relative="1" as="geometry">
                        <mxPoint x="492" y="361" as="sourcePoint"/>
                        <mxPoint x="492" y="238" as="targetPoint"/>
                    </mxGeometry>
                </mxCell>
                <mxCell id="58" value="" style="endArrow=none;html=1;startSize=0;endSize=6;sourcePerimeterSpacing=0;entryX=0.136;entryY=1.001;entryDx=0;entryDy=0;entryPerimeter=0;" parent="1" target="27" edge="1">
                    <mxGeometry width="50" height="50" relative="1" as="geometry">
                        <mxPoint x="372" y="357" as="sourcePoint"/>
                        <mxPoint x="434" y="357" as="targetPoint"/>
                    </mxGeometry>
                </mxCell>
                <mxCell id="59" value="" style="endArrow=none;html=1;startSize=0;endSize=6;sourcePerimeterSpacing=0;entryX=0.136;entryY=1.001;entryDx=0;entryDy=0;entryPerimeter=0;" parent="1" edge="1">
                    <mxGeometry width="50" height="50" relative="1" as="geometry">
                        <mxPoint x="372" y="446" as="sourcePoint"/>
                        <mxPoint x="435.433" y="446.19000000000005" as="targetPoint"/>
                    </mxGeometry>
                </mxCell>
                <mxCell id="61" value="" style="endArrow=none;html=1;startSize=0;endSize=6;sourcePerimeterSpacing=0;entryX=0.136;entryY=1.001;entryDx=0;entryDy=0;entryPerimeter=0;" parent="1" edge="1">
                    <mxGeometry width="50" height="50" relative="1" as="geometry">
                        <mxPoint x="372" y="379" as="sourcePoint"/>
                        <mxPoint x="435.433" y="379.19000000000005" as="targetPoint"/>
                    </mxGeometry>
                </mxCell>
                <mxCell id="62" value="" style="endArrow=none;html=1;startSize=0;endSize=6;sourcePerimeterSpacing=0;entryX=0.136;entryY=1.001;entryDx=0;entryDy=0;entryPerimeter=0;" parent="1" edge="1">
                    <mxGeometry width="50" height="50" relative="1" as="geometry">
                        <mxPoint x="372" y="423" as="sourcePoint"/>
                        <mxPoint x="435.433" y="423.19000000000005" as="targetPoint"/>
                    </mxGeometry>
                </mxCell>
                <mxCell id="63" value="" style="endArrow=none;html=1;startSize=0;endSize=6;sourcePerimeterSpacing=0;entryX=0.136;entryY=1.001;entryDx=0;entryDy=0;entryPerimeter=0;" parent="1" edge="1">
                    <mxGeometry width="50" height="50" relative="1" as="geometry">
                        <mxPoint x="372" y="368.37" as="sourcePoint"/>
                        <mxPoint x="435.433" y="368.56000000000006" as="targetPoint"/>
                    </mxGeometry>
                </mxCell>
                <mxCell id="64" value="" style="endArrow=none;html=1;startSize=0;endSize=6;sourcePerimeterSpacing=0;entryX=0.136;entryY=1.001;entryDx=0;entryDy=0;entryPerimeter=0;" parent="1" edge="1">
                    <mxGeometry width="50" height="50" relative="1" as="geometry">
                        <mxPoint x="372" y="390" as="sourcePoint"/>
                        <mxPoint x="435.433" y="390.19000000000005" as="targetPoint"/>
                    </mxGeometry>
                </mxCell>
                <mxCell id="65" value="" style="endArrow=none;html=1;startSize=0;endSize=6;sourcePerimeterSpacing=0;entryX=0.136;entryY=1.001;entryDx=0;entryDy=0;entryPerimeter=0;" parent="1" edge="1">
                    <mxGeometry width="50" height="50" relative="1" as="geometry">
                        <mxPoint x="372" y="412" as="sourcePoint"/>
                        <mxPoint x="435.433" y="412.19000000000005" as="targetPoint"/>
                    </mxGeometry>
                </mxCell>
                <mxCell id="66" value="" style="endArrow=none;html=1;startSize=0;endSize=6;sourcePerimeterSpacing=0;entryX=0.136;entryY=1.001;entryDx=0;entryDy=0;entryPerimeter=0;" parent="1" edge="1">
                    <mxGeometry width="50" height="50" relative="1" as="geometry">
                        <mxPoint x="372" y="434.37" as="sourcePoint"/>
                        <mxPoint x="435.433" y="434.56000000000006" as="targetPoint"/>
                    </mxGeometry>
                </mxCell>
                <mxCell id="71" value="&lt;font style=&quot;font-size: 7px&quot;&gt;[31:28]Disp_data&lt;/font&gt;" style="text;html=1;strokeColor=none;fillColor=none;align=center;verticalAlign=middle;whiteSpace=wrap;rounded=0;" parent="1" vertex="1">
                    <mxGeometry x="367" y="334" width="60" height="30" as="geometry"/>
                </mxCell>
                <mxCell id="72" value="&lt;span style=&quot;color: rgb(0 , 0 , 0) ; font-family: &amp;#34;helvetica&amp;#34; ; font-size: 7px ; font-style: normal ; font-weight: 400 ; letter-spacing: normal ; text-align: center ; text-indent: 0px ; text-transform: none ; word-spacing: 0px ; background-color: rgb(255 , 255 , 255) ; display: inline ; float: none&quot;&gt;[27:24]Disp_data&lt;/span&gt;" style="text;whiteSpace=wrap;html=1;fontSize=7;" parent="1" vertex="1">
                    <mxGeometry x="369.003935546875" y="352.37458297164346" width="73" height="22" as="geometry"/>
                </mxCell>
                <mxCell id="73" value="&lt;span style=&quot;color: rgb(0 , 0 , 0) ; font-family: &amp;#34;helvetica&amp;#34; ; font-size: 7px ; font-style: normal ; font-weight: 400 ; letter-spacing: normal ; text-align: center ; text-indent: 0px ; text-transform: none ; word-spacing: 0px ; background-color: rgb(255 , 255 , 255) ; display: inline ; float: none&quot;&gt;[3:0]Disp_data&lt;/span&gt;" style="text;whiteSpace=wrap;html=1;fontSize=7;" parent="1" vertex="1">
                    <mxGeometry x="372.0035651765046" y="429.00421260127314" width="73" height="22" as="geometry"/>
                </mxCell>
                <mxCell id="74" value="&lt;font style=&quot;font-size: 24px&quot;&gt;...&lt;/font&gt;" style="text;html=1;strokeColor=none;fillColor=none;align=center;verticalAlign=middle;whiteSpace=wrap;rounded=0;fontSize=7;rotation=90;" parent="1" vertex="1">
                    <mxGeometry x="375.5" y="385.87" width="60" height="30" as="geometry"/>
                </mxCell>
                <mxCell id="75" value="&lt;font style=&quot;font-size: 12px&quot;&gt;MUX&lt;/font&gt;" style="text;html=1;strokeColor=none;fillColor=none;align=center;verticalAlign=middle;whiteSpace=wrap;rounded=0;fontSize=24;" parent="1" vertex="1">
                    <mxGeometry x="439" y="381" width="60" height="30" as="geometry"/>
                </mxCell>
                <mxCell id="76" value="&lt;font style=&quot;font-size: 8px&quot;&gt;[3:0]Disp_temp&lt;/font&gt;" style="text;html=1;strokeColor=none;fillColor=none;align=center;verticalAlign=middle;whiteSpace=wrap;rounded=0;" parent="1" vertex="1">
                    <mxGeometry x="505" y="367.37" width="60" height="30" as="geometry"/>
                </mxCell>
                <mxCell id="79" value="" style="endArrow=open;html=1;fontSize=12;startSize=6;endSize=6;sourcePerimeterSpacing=0;exitX=0.497;exitY=-0.004;exitDx=0;exitDy=0;exitPerimeter=0;endFill=0;" parent="1" source="27" edge="1">
                    <mxGeometry width="50" height="50" relative="1" as="geometry">
                        <mxPoint x="512" y="400.57" as="sourcePoint"/>
                        <mxPoint x="568" y="401" as="targetPoint"/>
                    </mxGeometry>
                </mxCell>
                <mxCell id="80" value="&lt;span style=&quot;color: rgb(0, 0, 0); font-family: helvetica; font-size: 12px; font-style: normal; font-weight: 400; letter-spacing: normal; text-align: center; text-indent: 0px; text-transform: none; word-spacing: 0px; background-color: rgb(255, 255, 255); display: inline; float: none;&quot;&gt;[2:0]num_cnt&lt;/span&gt;" style="text;whiteSpace=wrap;html=1;" parent="1" vertex="1">
                    <mxGeometry x="472.00331298828127" y="178.00331298828127" width="89" height="28" as="geometry"/>
                </mxCell>
                <mxCell id="81" value="" style="endArrow=open;html=1;endFill=0;strokeWidth=2;" parent="1" edge="1">
                    <mxGeometry width="50" height="50" relative="1" as="geometry">
                        <mxPoint x="268" y="403.87" as="sourcePoint"/>
                        <mxPoint x="352" y="404" as="targetPoint"/>
                    </mxGeometry>
                </mxCell>
            </root>
        </mxGraphModel>
    </diagram>
    <diagram id="5nsHygk4ks404CuMizws" name="第 2 页">
        <mxGraphModel dx="1134" dy="437" grid="0" gridSize="10" guides="1" tooltips="1" connect="1" arrows="1" fold="1" page="0" pageScale="1" pageWidth="827" pageHeight="1169" math="0" shadow="0">
            <root>
                <mxCell id="_WiIMK-xIGHAvGB1Ywad-0"/>
                <mxCell id="_WiIMK-xIGHAvGB1Ywad-1" parent="_WiIMK-xIGHAvGB1Ywad-0"/>
                <mxCell id="_WiIMK-xIGHAvGB1Ywad-2" value="" style="shape=table;startSize=0;container=1;collapsible=0;childLayout=tableLayout;" vertex="1" parent="_WiIMK-xIGHAvGB1Ywad-1">
                    <mxGeometry x="-50" y="210" width="480" height="40" as="geometry"/>
                </mxCell>
                <mxCell id="_WiIMK-xIGHAvGB1Ywad-3" value="" style="shape=partialRectangle;collapsible=0;dropTarget=0;pointerEvents=0;fillColor=none;top=0;left=0;bottom=0;right=0;points=[[0,0.5],[1,0.5]];portConstraint=eastwest;" vertex="1" parent="_WiIMK-xIGHAvGB1Ywad-2">
                    <mxGeometry width="480" height="40" as="geometry"/>
                </mxCell>
                <mxCell id="_WiIMK-xIGHAvGB1Ywad-4" value="31:28" style="shape=partialRectangle;html=1;whiteSpace=wrap;connectable=0;overflow=hidden;fillColor=none;top=0;left=0;bottom=0;right=0;pointerEvents=1;" vertex="1" parent="_WiIMK-xIGHAvGB1Ywad-3">
                    <mxGeometry width="60" height="40" as="geometry">
                        <mxRectangle width="60" height="40" as="alternateBounds"/>
                    </mxGeometry>
                </mxCell>
                <mxCell id="_WiIMK-xIGHAvGB1Ywad-5" value="27:24" style="shape=partialRectangle;html=1;whiteSpace=wrap;connectable=0;overflow=hidden;fillColor=none;top=0;left=0;bottom=0;right=0;pointerEvents=1;" vertex="1" parent="_WiIMK-xIGHAvGB1Ywad-3">
                    <mxGeometry x="60" width="60" height="40" as="geometry">
                        <mxRectangle width="60" height="40" as="alternateBounds"/>
                    </mxGeometry>
                </mxCell>
                <mxCell id="_WiIMK-xIGHAvGB1Ywad-6" value="23:20" style="shape=partialRectangle;html=1;whiteSpace=wrap;connectable=0;overflow=hidden;fillColor=none;top=0;left=0;bottom=0;right=0;pointerEvents=1;" vertex="1" parent="_WiIMK-xIGHAvGB1Ywad-3">
                    <mxGeometry x="120" width="60" height="40" as="geometry">
                        <mxRectangle width="60" height="40" as="alternateBounds"/>
                    </mxGeometry>
                </mxCell>
                <mxCell id="_WiIMK-xIGHAvGB1Ywad-7" value="19:16" style="shape=partialRectangle;html=1;whiteSpace=wrap;connectable=0;overflow=hidden;fillColor=none;top=0;left=0;bottom=0;right=0;pointerEvents=1;" vertex="1" parent="_WiIMK-xIGHAvGB1Ywad-3">
                    <mxGeometry x="180" width="60" height="40" as="geometry">
                        <mxRectangle width="60" height="40" as="alternateBounds"/>
                    </mxGeometry>
                </mxCell>
                <mxCell id="_WiIMK-xIGHAvGB1Ywad-8" value="15:12" style="shape=partialRectangle;html=1;whiteSpace=wrap;connectable=0;overflow=hidden;fillColor=none;top=0;left=0;bottom=0;right=0;pointerEvents=1;" vertex="1" parent="_WiIMK-xIGHAvGB1Ywad-3">
                    <mxGeometry x="240" width="60" height="40" as="geometry">
                        <mxRectangle width="60" height="40" as="alternateBounds"/>
                    </mxGeometry>
                </mxCell>
                <mxCell id="_WiIMK-xIGHAvGB1Ywad-9" value="11:8" style="shape=partialRectangle;html=1;whiteSpace=wrap;connectable=0;overflow=hidden;fillColor=none;top=0;left=0;bottom=0;right=0;pointerEvents=1;" vertex="1" parent="_WiIMK-xIGHAvGB1Ywad-3">
                    <mxGeometry x="300" width="60" height="40" as="geometry">
                        <mxRectangle width="60" height="40" as="alternateBounds"/>
                    </mxGeometry>
                </mxCell>
                <mxCell id="_WiIMK-xIGHAvGB1Ywad-10" value="7:4" style="shape=partialRectangle;html=1;whiteSpace=wrap;connectable=0;overflow=hidden;fillColor=none;top=0;left=0;bottom=0;right=0;pointerEvents=1;" vertex="1" parent="_WiIMK-xIGHAvGB1Ywad-3">
                    <mxGeometry x="360" width="60" height="40" as="geometry">
                        <mxRectangle width="60" height="40" as="alternateBounds"/>
                    </mxGeometry>
                </mxCell>
                <mxCell id="_WiIMK-xIGHAvGB1Ywad-11" value="3:0" style="shape=partialRectangle;html=1;whiteSpace=wrap;connectable=0;overflow=hidden;fillColor=none;top=0;left=0;bottom=0;right=0;pointerEvents=1;" vertex="1" parent="_WiIMK-xIGHAvGB1Ywad-3">
                    <mxGeometry x="420" width="60" height="40" as="geometry">
                        <mxRectangle width="60" height="40" as="alternateBounds"/>
                    </mxGeometry>
                </mxCell>
                <mxCell id="_WiIMK-xIGHAvGB1Ywad-12" value="Disp_data [31:0]" style="text;html=1;strokeColor=none;fillColor=none;align=center;verticalAlign=middle;whiteSpace=wrap;rounded=0;" vertex="1" parent="_WiIMK-xIGHAvGB1Ywad-1">
                    <mxGeometry x="-160" y="215" width="100" height="30" as="geometry"/>
                </mxCell>
                <mxCell id="_WiIMK-xIGHAvGB1Ywad-13" value="数码管1-8" style="text;html=1;strokeColor=none;fillColor=none;align=center;verticalAlign=middle;whiteSpace=wrap;rounded=0;" vertex="1" parent="_WiIMK-xIGHAvGB1Ywad-1">
                    <mxGeometry x="-140" y="175" width="60" height="30" as="geometry"/>
                </mxCell>
                <mxCell id="_WiIMK-xIGHAvGB1Ywad-14" value="" style="shape=table;startSize=0;container=1;collapsible=0;childLayout=tableLayout;" vertex="1" parent="_WiIMK-xIGHAvGB1Ywad-1">
                    <mxGeometry x="-50" y="170" width="480" height="40" as="geometry"/>
                </mxCell>
                <mxCell id="_WiIMK-xIGHAvGB1Ywad-15" value="" style="shape=partialRectangle;collapsible=0;dropTarget=0;pointerEvents=0;fillColor=none;top=0;left=0;bottom=0;right=0;points=[[0,0.5],[1,0.5]];portConstraint=eastwest;" vertex="1" parent="_WiIMK-xIGHAvGB1Ywad-14">
                    <mxGeometry width="480" height="40" as="geometry"/>
                </mxCell>
                <mxCell id="_WiIMK-xIGHAvGB1Ywad-16" value="1" style="shape=partialRectangle;html=1;whiteSpace=wrap;connectable=0;overflow=hidden;fillColor=none;top=0;left=0;bottom=0;right=0;pointerEvents=1;" vertex="1" parent="_WiIMK-xIGHAvGB1Ywad-15">
                    <mxGeometry width="60" height="40" as="geometry">
                        <mxRectangle width="60" height="40" as="alternateBounds"/>
                    </mxGeometry>
                </mxCell>
                <mxCell id="_WiIMK-xIGHAvGB1Ywad-17" value="2" style="shape=partialRectangle;html=1;whiteSpace=wrap;connectable=0;overflow=hidden;fillColor=none;top=0;left=0;bottom=0;right=0;pointerEvents=1;" vertex="1" parent="_WiIMK-xIGHAvGB1Ywad-15">
                    <mxGeometry x="60" width="60" height="40" as="geometry">
                        <mxRectangle width="60" height="40" as="alternateBounds"/>
                    </mxGeometry>
                </mxCell>
                <mxCell id="_WiIMK-xIGHAvGB1Ywad-18" value="3" style="shape=partialRectangle;html=1;whiteSpace=wrap;connectable=0;overflow=hidden;fillColor=none;top=0;left=0;bottom=0;right=0;pointerEvents=1;" vertex="1" parent="_WiIMK-xIGHAvGB1Ywad-15">
                    <mxGeometry x="120" width="60" height="40" as="geometry">
                        <mxRectangle width="60" height="40" as="alternateBounds"/>
                    </mxGeometry>
                </mxCell>
                <mxCell id="_WiIMK-xIGHAvGB1Ywad-19" value="4" style="shape=partialRectangle;html=1;whiteSpace=wrap;connectable=0;overflow=hidden;fillColor=none;top=0;left=0;bottom=0;right=0;pointerEvents=1;" vertex="1" parent="_WiIMK-xIGHAvGB1Ywad-15">
                    <mxGeometry x="180" width="60" height="40" as="geometry">
                        <mxRectangle width="60" height="40" as="alternateBounds"/>
                    </mxGeometry>
                </mxCell>
                <mxCell id="_WiIMK-xIGHAvGB1Ywad-20" value="5" style="shape=partialRectangle;html=1;whiteSpace=wrap;connectable=0;overflow=hidden;fillColor=none;top=0;left=0;bottom=0;right=0;pointerEvents=1;" vertex="1" parent="_WiIMK-xIGHAvGB1Ywad-15">
                    <mxGeometry x="240" width="60" height="40" as="geometry">
                        <mxRectangle width="60" height="40" as="alternateBounds"/>
                    </mxGeometry>
                </mxCell>
                <mxCell id="_WiIMK-xIGHAvGB1Ywad-21" value="6" style="shape=partialRectangle;html=1;whiteSpace=wrap;connectable=0;overflow=hidden;fillColor=none;top=0;left=0;bottom=0;right=0;pointerEvents=1;" vertex="1" parent="_WiIMK-xIGHAvGB1Ywad-15">
                    <mxGeometry x="300" width="60" height="40" as="geometry">
                        <mxRectangle width="60" height="40" as="alternateBounds"/>
                    </mxGeometry>
                </mxCell>
                <mxCell id="_WiIMK-xIGHAvGB1Ywad-22" value="7" style="shape=partialRectangle;html=1;whiteSpace=wrap;connectable=0;overflow=hidden;fillColor=none;top=0;left=0;bottom=0;right=0;pointerEvents=1;" vertex="1" parent="_WiIMK-xIGHAvGB1Ywad-15">
                    <mxGeometry x="360" width="60" height="40" as="geometry">
                        <mxRectangle width="60" height="40" as="alternateBounds"/>
                    </mxGeometry>
                </mxCell>
                <mxCell id="_WiIMK-xIGHAvGB1Ywad-23" value="8" style="shape=partialRectangle;html=1;whiteSpace=wrap;connectable=0;overflow=hidden;fillColor=none;top=0;left=0;bottom=0;right=0;pointerEvents=1;" vertex="1" parent="_WiIMK-xIGHAvGB1Ywad-15">
                    <mxGeometry x="420" width="60" height="40" as="geometry">
                        <mxRectangle width="60" height="40" as="alternateBounds"/>
                    </mxGeometry>
                </mxCell>
            </root>
        </mxGraphModel>
    </diagram>
</mxfile>